<svg data-v-423bf9ae="" xmlns="http://www.w3.org/2000/svg" viewBox="0 0 708 90" class="iconLeft"><!----><!----><!----><g data-v-423bf9ae="" id="540279d7-5686-44ff-b2f0-f8f6097beeb1" fill="black" transform="matrix(6.458557615325557,0,0,6.458557615325557,150.25185506370468,-7.411196778890549)"><path d="M1.34 3.67L0.35 4.48L0.35 12.71L5.08 12.70L6.00 11.15L6.00 11.15Q4.99 11.64 1.60 11.47L1.60 11.47L1.60 8.38L3.97 8.38L4.70 7.25L1.64 7.25L1.64 4.79L4.81 4.79L5.65 3.66L1.34 3.67ZM9.08 11.03L6.99 6.44L5.86 7.03L8.29 12.74L9.49 11.98L9.38 11.65L11.32 6.64L10.86 6.47L9.08 11.03ZM14.91 6.51L14.91 6.51L14.91 6.51Q13.82 6.35 12.88 7.19L12.88 7.19L12.88 7.19Q11.94 8.03 11.68 9.15L11.68 9.15L11.68 9.15Q11.42 10.27 11.76 11.09L11.76 11.09L11.76 11.09Q12.11 11.91 12.69 12.28L12.69 12.28L12.69 12.28Q13.28 12.66 14.07 12.71L14.07 12.71L14.07 12.71Q14.86 12.76 15.63 12.08L15.63 12.08L15.63 12.08Q16.40 11.41 16.86 10.54L16.86 10.54L16.76 10.47L16.76 10.47Q15.71 11.57 14.63 11.52L14.63 11.52L14.63 11.52Q13.56 11.47 13.21 10.85L13.21 10.85L15.16 9.78L15.16 9.78Q16.60 8.81 16.30 7.75L16.30 7.75L16.30 7.75Q15.99 6.68 14.91 6.51ZM12.69 8.16L12.69 8.16L12.69 8.16Q12.93 7.66 13.54 7.40L13.54 7.40L13.54 7.40Q14.15 7.14 14.70 7.68L14.70 7.68L14.70 7.68Q15.24 8.21 15.08 8.90L15.08 8.90L15.08 8.90Q14.91 9.60 13.00 10.57L13.00 10.57L13.00 10.57Q12.69 10.04 12.57 9.35L12.57 9.35L12.57 9.35Q12.45 8.67 12.69 8.16ZM18.86 6.51L17.59 7.03L17.59 12.73L18.92 12.12L18.92 8.05L18.92 8.05Q19.56 7.22 20.15 7.37L20.15 7.37L20.15 7.37Q20.73 7.53 20.81 8.26L20.81 8.26L22.04 7.46L22.04 7.46Q21.90 6.62 20.89 6.50L20.89 6.50L20.89 6.50Q19.87 6.38 18.85 7.73L18.85 7.73L18.86 6.51ZM27.73 3.47L26.26 4.14L26.26 4.14Q26.60 6.15 23.81 7.77L23.81 7.77L23.80 3.48L22.46 4.07L22.45 12.73L23.80 12.12L23.78 8.41L23.78 8.41Q24.53 8.31 25.75 10.45L25.75 10.45L25.75 10.45Q26.96 12.60 27.60 12.76L27.60 12.76L28.73 11.70L28.73 11.70Q28.16 11.42 27.10 9.54L27.10 9.54L27.10 9.54Q26.04 7.66 25.37 7.36L25.37 7.36L25.37 7.36Q28.31 5.18 27.73 3.47L27.73 3.47ZM32.33 6.43L32.33 6.43L32.33 6.43Q31.42 6.36 30.40 6.88L30.40 6.88L30.40 6.88Q29.39 7.40 29.51 8.65L29.51 8.65L31.08 7.95L31.08 7.95Q30.96 7.10 31.71 6.96L31.71 6.96L31.71 6.96Q32.45 6.82 32.87 7.21L32.87 7.21L32.87 7.21Q33.28 7.61 33.22 8.80L33.22 8.80L33.22 8.80Q32.76 8.50 32.15 8.42L32.15 8.42L32.15 8.42Q31.53 8.33 30.52 8.85L30.52 8.85L30.52 8.85Q29.50 9.37 29.25 10.38L29.25 10.38L29.25 10.38Q29.00 11.38 29.78 12.06L29.78 12.06L29.78 12.06Q30.56 12.73 31.28 12.70L31.28 12.70L31.28 12.70Q32.01 12.67 32.37 12.39L32.37 12.39L32.37 12.39Q32.73 12.10 33.24 11.57L33.24 11.57L33.24 11.57Q33.24 12.44 33.44 12.76L33.44 12.76L34.79 12.04L34.79 12.04Q34.45 11.63 34.52 11.02L34.52 11.02L34.52 8.16L34.52 8.16Q34.55 7.49 33.90 6.99L33.90 6.99L33.90 6.99Q33.25 6.50 32.33 6.43ZM33.27 9.32L33.26 9.68L33.26 11.18L33.26 11.18Q32.09 12.11 31.15 11.55L31.15 11.55L31.15 11.55Q30.20 10.99 30.07 10.16L30.07 10.16L30.07 10.16Q29.95 9.34 30.90 9.31L30.90 9.31L30.90 9.31Q31.84 9.28 32.64 10.00L32.64 10.00L33.27 9.32ZM38.86 6.50L38.86 6.50L38.86 6.50Q37.52 6.27 36.59 7.11L36.59 7.11L36.59 7.11Q35.66 7.96 35.48 9.11L35.48 9.11L35.48 9.11Q35.29 10.27 35.70 11.14L35.70 11.14L35.70 11.14Q36.12 12.02 36.83 12.37L36.83 12.37L36.83 12.37Q37.53 12.73 38.24 12.74L38.24 12.74L38.24 12.74Q38.96 12.76 39.62 12.16L39.62 12.16L39.62 12.16Q40.28 11.57 40.73 10.54L40.73 10.54L40.63 10.47L40.63 10.47Q39.70 11.42 38.83 11.47L38.83 11.47L38.83 11.47Q37.96 11.52 37.41 11.17L37.41 11.17L37.41 11.17Q36.85 10.82 36.51 10.13L36.51 10.13L36.51 10.13Q36.16 9.44 36.37 8.56L36.37 8.56L36.37 8.56Q36.57 7.67 37.22 7.39L37.22 7.39L37.22 7.39Q37.87 7.12 38.48 7.45L38.48 7.45L38.48 7.45Q39.08 7.78 39.33 8.78L39.33 8.78L40.53 7.99L40.53 7.99Q40.21 6.73 38.86 6.50ZM43.18 3.55L41.92 4.14L41.92 5.58L43.18 5.06L43.18 3.55ZM43.19 6.54L41.88 7.02L41.88 12.67L43.19 12.21L43.19 6.54ZM47.46 6.43L47.46 6.43L47.46 6.43Q46.55 6.36 45.53 6.88L45.53 6.88L45.53 6.88Q44.52 7.40 44.64 8.65L44.64 8.65L46.20 7.95L46.20 7.95Q46.09 7.10 46.83 6.96L46.83 6.96L46.83 6.96Q47.58 6.82 48.00 7.21L48.00 7.21L48.00 7.21Q48.41 7.61 48.35 8.80L48.35 8.80L48.35 8.80Q47.89 8.50 47.27 8.42L47.27 8.42L47.27 8.42Q46.66 8.33 45.64 8.85L45.64 8.85L45.64 8.85Q44.63 9.37 44.38 10.38L44.38 10.38L44.38 10.38Q44.13 11.38 44.91 12.06L44.91 12.06L44.91 12.06Q45.68 12.73 46.41 12.70L46.41 12.70L46.41 12.70Q47.13 12.67 47.50 12.39L47.50 12.39L47.50 12.39Q47.86 12.10 48.37 11.57L48.37 11.57L48.37 11.57Q48.36 12.44 48.57 12.76L48.57 12.76L49.92 12.04L49.92 12.04Q49.58 11.63 49.65 11.02L49.65 11.02L49.65 8.16L49.65 8.16Q49.68 7.49 49.03 6.99L49.03 6.99L49.03 6.99Q48.38 6.50 47.46 6.43ZM48.40 9.32L48.38 9.68L48.38 11.18L48.38 11.18Q47.22 12.11 46.28 11.55L46.28 11.55L46.28 11.55Q45.33 10.99 45.20 10.16L45.20 10.16L45.20 10.16Q45.08 9.34 46.02 9.31L46.02 9.31L46.02 9.31Q46.97 9.28 47.77 10.00L47.77 10.00L48.40 9.32ZM52.05 3.55L50.73 4.01L50.73 12.72L52.13 12.24L52.14 9.77L52.14 9.77Q52.40 9.55 52.74 9.80L52.74 9.80L52.74 9.80Q53.07 10.06 53.87 11.33L53.87 11.33L53.87 11.33Q54.66 12.60 55.16 12.74L55.16 12.74L56.21 11.69L56.21 11.69Q55.70 11.50 54.97 10.34L54.97 10.34L54.97 10.34Q54.24 9.17 53.57 8.96L53.57 8.96L53.57 8.96Q54.33 8.52 54.94 7.87L54.94 7.87L54.94 7.87Q55.56 7.22 55.35 6.32L55.35 6.32L53.96 6.99L53.96 6.99Q54.02 7.82 53.55 8.38L53.55 8.38L53.55 8.38Q53.07 8.93 52.05 9.29L52.05 9.29L52.05 3.55ZM60.92 8.61L63.03 5.17L63.03 12.70L64.29 12.39L64.29 3.61L63.04 4.09L60.62 8.09L57.91 3.53L56.72 4.07L56.73 12.70L57.88 12.33L57.88 5.93L60.08 9.54L61.09 8.93L60.92 8.61ZM68.23 6.51L68.23 6.51L68.23 6.51Q67.14 6.35 66.20 7.19L66.20 7.19L66.20 7.19Q65.26 8.03 65.00 9.15L65.00 9.15L65.00 9.15Q64.74 10.27 65.08 11.09L65.08 11.09L65.08 11.09Q65.43 11.91 66.01 12.28L66.01 12.28L66.01 12.28Q66.60 12.66 67.39 12.71L67.39 12.71L67.39 12.71Q68.18 12.76 68.95 12.08L68.95 12.08L68.95 12.08Q69.72 11.41 70.18 10.54L70.18 10.54L70.08 10.47L70.08 10.47Q69.03 11.57 67.95 11.52L67.95 11.52L67.95 11.52Q66.88 11.47 66.53 10.85L66.53 10.85L68.48 9.78L68.48 9.78Q69.92 8.81 69.62 7.75L69.62 7.75L69.62 7.75Q69.31 6.68 68.23 6.51ZM66.01 8.16L66.01 8.16L66.01 8.16Q66.25 7.66 66.86 7.40L66.86 7.40L66.86 7.40Q67.47 7.14 68.02 7.68L68.02 7.68L68.02 7.68Q68.56 8.21 68.40 8.90L68.40 8.90L68.40 8.90Q68.23 9.60 66.32 10.57L66.32 10.57L66.32 10.57Q66.01 10.04 65.89 9.35L65.89 9.35L65.89 9.35Q65.77 8.67 66.01 8.16ZM72.45 6.35L71.11 6.93L71.11 12.73L72.48 12.13L72.48 8.05L72.48 8.05Q72.99 7.42 73.75 7.48L73.75 7.48L73.75 7.48Q74.51 7.53 74.60 8.55L74.60 8.55L74.60 12.70L75.95 12.11L75.95 8.11L75.95 8.11Q76.49 7.36 77.26 7.50L77.26 7.50L77.26 7.50Q78.03 7.64 78.00 9.03L78.00 9.03L78.00 12.70L79.37 12.08L79.37 7.99L79.37 7.99Q79.20 6.51 77.90 6.53L77.90 6.53L77.90 6.53Q76.59 6.56 75.86 7.73L75.86 7.73L75.86 7.73Q75.58 6.56 74.42 6.54L74.42 6.54L74.42 6.54Q73.27 6.51 72.45 7.73L72.45 7.73L72.45 6.35ZM83.56 6.48L83.56 6.48L83.56 6.48Q82.44 6.51 81.73 7.03L81.73 7.03L81.73 7.03Q81.03 7.55 80.71 8.19L80.71 8.19L80.71 8.19Q80.38 8.84 80.36 9.76L80.36 9.76L80.36 9.76Q80.34 10.68 81.03 11.62L81.03 11.62L81.03 11.62Q81.72 12.56 82.73 12.71L82.73 12.71L82.73 12.71Q83.73 12.85 84.59 12.33L84.59 12.33L84.59 12.33Q85.45 11.80 85.89 11.12L85.89 11.12L85.89 11.12Q86.32 10.45 86.34 9.35L86.34 9.35L86.34 9.35Q86.36 8.26 85.51 7.36L85.51 7.36L85.51 7.36Q84.67 6.46 83.56 6.48ZM83.26 7.44L83.26 7.44L83.26 7.44Q84.30 7.82 84.73 8.91L84.73 8.91L84.73 8.91Q85.16 9.99 85.10 10.67L85.10 10.67L85.10 10.67Q85.05 11.34 84.48 11.71L84.48 11.71L84.48 11.71Q83.90 12.08 82.96 11.56L82.96 11.56L82.96 11.56Q82.01 11.05 81.71 9.91L81.71 9.91L81.71 9.91Q81.40 8.77 81.81 7.92L81.81 7.92L81.81 7.92Q82.22 7.07 83.26 7.44Z"></path></g><!----><g data-v-423bf9ae="" id="4ff82b47-99ff-4951-b589-beba8c3604c4" transform="matrix(1.441534533923716,0,0,1.441534533923716,-35.17152516960847,-44.87983743007577)" stroke="none" fill="black"><path d="M105.834 73.924L82.827 83.15a.962.962 0 1 0 .715 1.788l23.009-9.226a.964.964 0 1 0-.717-1.788zM91.437 64.571a.962.962 0 0 0 1.251.535l14.258-5.717a.962.962 0 0 0-.717-1.787l-14.258 5.717a.96.96 0 0 0-.534 1.252z"></path><path d="M115.718 53.158c-.632-.756-3.588-4.233-5.397-5.467v-2.536c0-.007-.004-.013-.004-.02 0-.01.004-.021.004-.031a.988.988 0 0 0-.073-.311c-.008-.023-.024-.04-.036-.063a.9.9 0 0 0-.146-.219c-.026-.028-.055-.051-.083-.076a.898.898 0 0 0-.189-.128c-.034-.018-.069-.037-.107-.05-.022-.009-.041-.023-.065-.03L64.168 31.471a.975.975 0 0 0-.503-.005l-33.01 8.611a.964.964 0 0 0-.719.891c-.001.037.009.07.013.106-.002.023-.014.043-.014.066v11.214c-.675.188-1.753.506-2.987.941-2.169.766-2.377 3.646-2.159 5.229a.965.965 0 0 0 .609.767l4.541 1.746.148 15.189c0 .01.005.016.005.022.001.071.026.138.043.206.014.054.019.109.041.159.024.055.065.098.1.145.037.053.066.109.111.152.039.036.089.06.133.089.06.041.116.084.183.11.009.004.015.012.023.015L77.62 93.813a.96.96 0 0 0 .68-.013l.014-.006.006-.002 31.398-12.591a.955.955 0 0 0 .594-.927c0-.017.01-.028.01-.047v-25.46c1.753-.052 3.385-.07 4.626-.028a.962.962 0 1 0 .77-1.581zm-51.82-19.762l42.47 11.921-28.447 11.408-43.752-15.573 29.729-7.756zm5.932 54.093c-.635-1.037-2.077-3.201-5.164-7.14a34.784 34.784 0 0 0-4.441-4.688l17.396 6.191c.22.077.463.073.681-.015l4.833-1.939a57.61 57.61 0 0 1-3.763 2.56c-4.514 2.832-8.062 4.419-9.542 5.031zM26.657 57.712c-.022-.874.102-2.308.931-2.6.901-.318 1.719-.57 2.346-.753v.422c0 .059.023.11.034.166a.95.95 0 0 0 .607 1.074l23.368 8.317c-.238.129-.47.273-.686.446-.887.71-1.531 1.712-1.912 2.423l-24.688-9.495zm5.214 4.07l19.612 7.543a.965.965 0 0 0 1.243-.548c.007-.017.659-1.63 1.733-2.488.843-.674 2.268-.838 2.757-.844h.007l.012-.003a.95.95 0 0 0 .322-.067c.035-.014.064-.031.097-.047a.982.982 0 0 0 .194-.133c.027-.024.055-.048.08-.076a.973.973 0 0 0 .136-.203c.015-.03.034-.055.047-.086.003-.009.009-.015.014-.024.019-.054.014-.108.023-.163.009-.056.033-.107.033-.166 0-.008-.005-.016-.005-.023a.937.937 0 0 0-.062-.283c-.009-.025-.009-.053-.021-.077a.95.95 0 0 0-.185-.266c-.012-.013-.019-.03-.031-.042-.031-.03-.074-.047-.109-.073-.073-.053-.143-.105-.226-.136l-.001-.001-25.681-9.14V42.375l45.119 16.059v16.095l-20.575-7.322a.962.962 0 1 0-.646 1.814l21.221 7.553v3.004L54.18 71.465a.964.964 0 0 0-.745 1.774c.052.025 5.262 2.619 9.715 8.301 2.97 3.789 4.365 5.871 4.971 6.85L32.005 75.535l-.134-13.753zm38.713 27.483c1.154-.474 3.42-1.48 6.395-3.147v5.424l-6.395-2.277zm37.812-9.608l-29.49 11.825v-6.481c.485-.29.978-.59 1.489-.91 6.218-3.901 8.191-6.45 8.272-6.559a.96.96 0 0 0-.002-1.166.96.96 0 0 0-1.123-.31l-8.637 3.463v-2.974l10.414-4.175a.964.964 0 0 0-.717-1.789l-9.697 3.89V58.406l29.488-11.826v2.745L97.83 53.56c-.014.006-.023.018-.036.024-.064.029-.115.07-.171.112-.047.035-.097.063-.134.105-.043.045-.071.1-.104.153-.032.052-.067.1-.091.157-.021.053-.025.111-.035.168a.844.844 0 0 0-.024.201c0 .016-.008.029-.008.044.006.057.03.106.045.16.01.042.006.086.022.128.004.012.016.022.021.034.015.035.035.064.056.097a.942.942 0 0 0 .13.176c.026.027.055.05.083.074.061.048.122.086.19.121.03.014.058.03.09.042a.947.947 0 0 0 .324.063h.001l.07-.002c.077-.006 5.215-.382 10.132-.581v24.82h.005zm-4.265-26.546l5.586-2.24a.977.977 0 0 0 .254-.166c.021-.017.049-.026.067-.045.049-.049.079-.114.117-.173.028-.045.067-.083.09-.133.012-.028.01-.062.019-.09.014-.04.02-.08.026-.121.764.711 1.691 1.684 2.557 2.647-2.624.017-5.909.165-8.716.321z"></path></g><!----></svg>